# xmcd CD database file
#
# Track frame offsets:
#	150
#	12420
#	23747
#	41240
#	52820
#	75715
#	88070
#	102795
#	128200
#	141192
#	151470
#	175822
#	186772
#	206330
#	225890
#	239100
#	250275
#	277732
#	295302
#	327145
#
# Disc length: 4583 seconds
#
# Revision: 5
# Processed by: cddbd v1.5.2PL0 Copyright (c) Steve Scherf et al.
# Submitted via: CDex 1.51
#
DISCID=0d11e514
DTITLE=James Cotton - The Best Of The Verve Years
DYEAR=1995
DGENRE=Blues
TTITLE0=Good Time Charlie
TTITLE1=Turn On Your Lovelight
TTITLE2=Something On Your Mind
TTITLE3=Don't Start Me Talkin'
TTITLE4=Jelly, Jelly
TTITLE5=Off The Wall
TTITLE6=Feelin' Good
TTITLE7=Sweet Sixteen
TTITLE8=Knock On Wood
TTITLE9=Oh, Why?
TTITLE10=Blues In My Sleep
TTITLE11=Soul Survivor
TTITLE12=Fallin' Rain
TTITLE13=Heart Attack
TTITLE14=Lovin' Cup
TTITLE15=She's Murder (aka "Murder In The First Degree")
TTITLE16=The Creeper
TTITLE17=Down At Your Buryin'
TTITLE18=Back To St. Louis
TTITLE19=The Coach's Better Days
EXTD=YEAR: 1995
EXTT0=
EXTT1=
EXTT2=
EXTT3=
EXTT4=
EXTT5=
EXTT6=
EXTT7=
EXTT8=
EXTT9=
EXTT10=
EXTT11=
EXTT12=
EXTT13=
EXTT14=
EXTT15=
EXTT16=
EXTT17=
EXTT18=
EXTT19=
PLAYORDER=
